<?xml version="1.0" encoding="UTF-8"?>
<svg width="50px" height="50px" viewBox="0 0 50 50" version="1.1" xmlns="http://www.w3.org/2000/svg" xmlns:xlink="http://www.w3.org/1999/xlink">
    <!-- Generator: Sketch 40.3 (33839) - http://www.bohemiancoding.com/sketch -->
    <title>weatherly_cloud copy</title>
    <desc>Created with Sketch.</desc>
    <defs></defs>
    <g id="Page-1" stroke="none" stroke-width="1" fill="none" fill-rule="evenodd">
        <g id="weatherly_cloud-copy" fill="#1D1D1B">
            <g id="Page-1">
                <g id="02d">
                    <path d="M20.3125,6.25 C21.1750977,6.25 21.875,5.55009766 21.875,4.6875 L21.875,1.5625 C21.875,0.699902344 21.1750977,0 20.3125,0 C19.4499023,0 18.75,0.699902344 18.75,1.5625 L18.75,4.6875 C18.75,5.55009766 19.4499023,6.25 20.3125,6.25 L20.3125,6.25 L20.3125,6.25 Z M32.4646484,10.3678711 L34.6741211,8.15839844 C35.284375,7.54804688 35.284375,6.55927734 34.6741211,5.94892578 C34.0637695,5.33857422 33.075,5.33857422 32.4646484,5.94892578 L30.2551758,8.15839844 C29.6448242,8.76875 29.6448242,9.75751953 30.2551758,10.3678711 C30.8654297,10.9782227 31.8542969,10.9782227 32.4646484,10.3678711 L32.4646484,10.3678711 L32.4646484,10.3678711 Z M1.5625,21.875 L4.6875,21.875 C5.55009766,21.875 6.25,21.1750977 6.25,20.3125 C6.25,19.4499023 5.55009766,18.75 4.6875,18.75 L1.5625,18.75 C0.699902344,18.75 0,19.4499023 0,20.3125 C0,21.1750977 0.699902344,21.875 1.5625,21.875 L1.5625,21.875 L1.5625,21.875 Z M34.375,20.3125 C34.375,21.1750977 35.0749023,21.875 35.9375,21.875 L39.0625,21.875 C39.9250977,21.875 40.625,21.1750977 40.625,20.3125 C40.625,19.4499023 39.9250977,18.75 39.0625,18.75 L35.9375,18.75 C35.0749023,18.75 34.375,19.4499023 34.375,20.3125 L34.375,20.3125 L34.375,20.3125 Z M8.15830078,10.3678711 C8.76875,10.9782227 9.75751953,10.9782227 10.3677734,10.3678711 C10.9782227,9.75751953 10.9782227,8.76875 10.3677734,8.15839844 L8.15830078,5.94892578 C7.54794922,5.33857422 6.55927734,5.33857422 5.94882813,5.94892578 C5.33847656,6.55927734 5.33847656,7.54804688 5.94882813,8.15839844 L8.15830078,10.3678711 L8.15830078,10.3678711 L8.15830078,10.3678711 Z M39.0625,25 C38.54375,25 38.0310547,25.0366211 37.5203125,25.1098633 C35.8825195,22.8759766 33.6996094,21.1710938 31.2255859,20.0805664 C31.0995117,14.1601562 26.2634766,9.375 20.3125,9.375 C14.2822266,9.375 9.375,14.2822266 9.375,20.3125 C9.375,22.0154297 9.79824219,23.6083984 10.4980469,25.0427734 C4.67529297,25.2807617 0,30.0597656 0,35.9375 C0,41.9677734 4.90722656,46.875 10.9375,46.875 C12.2742188,46.875 13.5824219,46.6308594 14.815332,46.1588867 C17.6431641,48.624707 21.2402344,50 25,50 C28.7638672,50 32.3567383,48.624707 35.184668,46.1588867 C36.4175781,46.6308594 37.7257813,46.875 39.0625,46.875 C45.0927734,46.875 50,41.9677734 50,35.9375 C50,29.9072266 45.0927734,25 39.0625,25 L39.0625,25 L39.0625,25 Z M20.3125,12.5 C24.2003906,12.5 27.3986328,15.3483398 27.9988281,19.0673828 C27.0202148,18.8720703 26.0213867,18.75 25,18.75 C20.5138672,18.75 16.3574219,20.6847656 13.4399414,23.9501953 C12.8601562,22.859668 12.5,21.6349609 12.5,20.3125 C12.5,15.9972656 15.9972656,12.5 20.3125,12.5 L20.3125,12.5 L20.3125,12.5 Z M39.0625,43.75 C37.3901367,43.75 35.8480469,43.2128906 34.5763672,42.3176758 C32.2835938,45.0805664 28.8695313,46.875 25,46.875 C21.1303711,46.875 17.7164062,45.0805664 15.4236328,42.3176758 C14.1541016,43.2128906 12.6098633,43.75 10.9375,43.75 C6.62226562,43.75 3.125,40.2527344 3.125,35.9375 C3.125,31.6222656 6.62226562,28.125 10.9375,28.125 C11.6943359,28.125 12.4083984,28.2673828 13.0981445,28.4708008 C13.3727539,28.5481445 13.6515625,28.6091797 13.9098633,28.7169922 C14.3371094,27.8808594 14.8742188,27.1158203 15.4703125,26.3976563 C17.753125,23.6511719 21.1486328,21.875 25,21.875 C25.9887695,21.875 26.9369141,22.0173828 27.8564453,22.237207 C28.8878906,22.48125 29.8625,22.8515625 30.7699219,23.3398438 C33.0444336,24.5483398 34.9121094,26.4201172 36.0879883,28.7170898 C37.0056641,28.3386719 38.0086914,28.125 39.0625,28.125 C43.3777344,28.125 46.875,31.6222656 46.875,35.9375 C46.875,40.2527344 43.3777344,43.75 39.0625,43.75 L39.0625,43.75 L39.0625,43.75 Z" id="Shape"></path>
                </g>
            </g>
        </g>
    </g>
</svg>